<svg width="32" height="33" viewBox="0 0 32 33" fill="none" xmlns="http://www.w3.org/2000/svg">
<g clip-path="url(#clip0_45_1812)">
<path d="M9.60005 6.90011C9.60005 5.20269 10.2743 3.5748 11.4746 2.37455C12.6748 1.17429 14.3027 0.5 16.0002 0.5C17.6976 0.5 19.3255 1.17429 20.5257 2.37455C21.726 3.5748 22.4003 5.20269 22.4003 6.90011V18.3222C23.4865 19.5538 24.1943 21.0728 24.4386 22.6968C24.683 24.3207 24.4536 25.9807 23.7779 27.4775C23.1022 28.9743 22.009 30.2444 20.6294 31.1352C19.2498 32.0261 17.6424 32.5 16.0002 32.5C14.3579 32.5 12.7505 32.0261 11.3709 31.1352C9.99134 30.2444 8.89811 28.9743 8.22242 27.4775C7.54674 25.9807 7.31732 24.3207 7.56168 22.6968C7.80604 21.0728 8.51381 19.5538 9.60005 18.3222V6.90011ZM16.0002 3.70005C15.1514 3.70005 14.3375 4.0372 13.7374 4.63733C13.1372 5.23745 12.8001 6.0514 12.8001 6.90011V19.647L12.3094 20.1163C11.5413 20.8531 11.0112 21.8028 10.7872 22.8433C10.5633 23.8838 10.6557 24.9675 11.0528 25.955C11.4498 26.9425 12.1332 27.7886 13.015 28.3845C13.8969 28.9805 14.9369 29.2989 16.0012 29.2989C17.0656 29.2989 18.1055 28.9805 18.9874 28.3845C19.8693 27.7886 20.5527 26.9425 20.9497 25.955C21.3467 24.9675 21.4392 23.8838 21.2152 22.8433C20.9913 21.8028 20.4612 20.8531 19.693 20.1163L19.2002 19.6491V6.90011C19.2002 6.0514 18.8631 5.23745 18.2629 4.63733C17.6628 4.0372 16.8489 3.70005 16.0002 3.70005ZM17.0668 12.2335C17.0668 11.9506 16.9545 11.6793 16.7544 11.4793C16.5544 11.2792 16.2831 11.1668 16.0002 11.1668C15.7173 11.1668 15.4459 11.2792 15.2459 11.4793C15.0459 11.6793 14.9335 11.9506 14.9335 12.2335V20.9483C14.2218 21.2 13.6219 21.6951 13.24 22.3462C12.858 22.9973 12.7185 23.7625 12.8462 24.5065C12.9738 25.2505 13.3604 25.9254 13.9376 26.412C14.5147 26.8986 15.2453 27.1654 16.0002 27.1654C16.755 27.1654 17.4856 26.8986 18.0628 26.412C18.6399 25.9254 19.0265 25.2505 19.1541 24.5065C19.2818 23.7625 19.1423 22.9973 18.7603 22.3462C18.3784 21.6951 17.7785 21.2 17.0668 20.9483V12.2335Z" fill="#212121" fill-opacity="0.6"/>
</g>
<defs>
<clipPath id="clip0_45_1812">
<rect width="32" height="32" fill="white" transform="translate(0 0.5)"/>
</clipPath>
</defs>
</svg>
