<svg width="140" height="32" viewBox="0 0 140 32" fill="none" xmlns="http://www.w3.org/2000/svg">
<g clip-path="url(#clip0_5_147)">
<mask id="mask0_5_147" style="mask-type:luminance" maskUnits="userSpaceOnUse" x="0" y="0" width="32" height="32">
<path d="M32 0H0V32H32V0Z" fill="white"/>
</mask>
<g mask="url(#mask0_5_147)">
<path d="M14.3919 0.759246C15.2198 -0.253123 16.7802 -0.253123 17.6081 0.759246L19.0688 2.54649C19.5835 3.17645 20.4236 3.44615 21.213 3.23683L23.4548 2.64108C24.7262 2.30296 25.9896 3.21067 26.0567 4.51084L26.1767 6.80528C26.2194 7.61235 26.7382 8.32081 27.5031 8.61063L29.6717 9.4318C30.9004 9.89874 31.3826 11.366 30.6644 12.4588L29.3991 14.385C28.9536 15.0632 28.9536 15.9367 29.3991 16.615L30.6644 18.5411C31.3826 19.634 30.9004 21.1012 29.6717 21.5681L27.5031 22.3893C26.7402 22.6791 26.2194 23.3856 26.1767 24.1947L26.0567 26.4891C25.9896 27.7893 24.7262 28.697 23.4548 28.3589L21.213 27.7631C20.4236 27.5538 19.5814 27.8235 19.0688 28.4535L17.6081 30.2407C16.7802 31.2531 15.2198 31.2531 14.3919 30.2407L12.9312 28.4535C12.4165 27.8235 11.5764 27.5538 10.787 27.7631L8.54521 28.3589C7.27375 28.697 6.01043 27.7893 5.9433 26.4891L5.82328 24.1947C5.78056 23.3856 5.2618 22.6791 4.49689 22.3893L2.3283 21.5681C1.09957 21.1032 0.617432 19.634 1.33555 18.5411L2.6009 16.615C3.04642 15.9367 3.04642 15.0632 2.6009 14.385L1.33555 12.4588C0.617432 11.366 1.09957 9.89874 2.3283 9.4318L4.49689 8.61063C5.25977 8.32081 5.78056 7.61437 5.82328 6.80528L5.9433 4.51084C6.01043 3.21067 7.27375 2.30296 8.54521 2.64108L10.787 3.23683C11.5764 3.44615 12.4186 3.17645 12.9312 2.54649L14.3919 0.759246Z" fill="#FBC02D"/>
<path d="M16 27C22.0765 27 27 21.8506 27 15.5C27 9.14938 22.0745 3.99997 16 3.99997C9.92552 3.99997 5 9.14938 5 15.5C5 21.8506 9.92552 27 16 27Z" fill="#FFEE58"/>
<path opacity="0.4" d="M16 27C22.0765 27 27 21.8506 27 15.5C27 9.14938 22.0745 3.99997 16 3.99997C9.92552 3.99997 5 9.14938 5 15.5C5 21.8506 9.92552 27 16 27Z" fill="url(#paint0_linear_5_147)"/>
<path d="M18 12.5C18 15.5367 15.3149 18 12 18C8.68509 18 6 15.5386 6 12.5C6 9.46131 8.68509 6.99997 12 6.99997C15.3149 6.99997 18 9.46131 18 12.5Z" fill="url(#paint1_radial_5_147)"/>
</g>
<path d="M15.9343 31.9992C18.7585 31.9992 21.0485 29.7091 21.0485 26.8849C21.0485 24.0607 18.7585 21.7707 15.9343 21.7707C13.11 21.7707 10.82 24.0607 10.82 26.8849C10.82 29.7091 13.11 31.9992 15.9343 31.9992Z" fill="white"/>
<path d="M23.13 22.2273H15.9344V31.9991H23.13V22.2273Z" fill="white"/>
<path d="M23.7496 31.9991C28.3091 31.9991 32.0041 28.3041 32.0041 23.7445C32.0041 19.185 28.3091 15.49 23.7496 15.49C19.1901 15.49 15.495 19.185 15.495 23.7445C15.495 28.3041 19.1901 31.9991 23.7496 31.9991Z" fill="white"/>
<path d="M15.9343 31.9992C18.7585 31.9992 21.0485 29.7091 21.0485 26.8849C21.0485 24.0607 18.7585 21.7707 15.9343 21.7707C13.11 21.7707 10.82 24.0607 10.82 26.8849C10.82 29.7091 13.11 31.9992 15.9343 31.9992Z" fill="url(#paint2_radial_5_147)"/>
</g>
<path d="M42.032 21.112C41.84 21.112 41.6907 21.0587 41.584 20.952C41.4773 20.8347 41.424 20.6747 41.424 20.472V10.248C41.424 10.0347 41.4773 9.87467 41.584 9.768C41.6907 9.66133 41.84 9.608 42.032 9.608C42.2027 9.608 42.336 9.64533 42.432 9.72C42.5387 9.784 42.6347 9.896 42.72 10.056L47.104 18.312H46.624L50.992 10.056C51.0773 9.896 51.168 9.784 51.264 9.72C51.36 9.64533 51.4987 9.608 51.68 9.608C51.8613 9.608 52.0053 9.66133 52.112 9.768C52.2187 9.87467 52.272 10.0347 52.272 10.248V20.472C52.272 20.6747 52.2187 20.8347 52.112 20.952C52.016 21.0587 51.8667 21.112 51.664 21.112C51.472 21.112 51.3227 21.0587 51.216 20.952C51.1093 20.8347 51.056 20.6747 51.056 20.472V11.48H51.44L47.44 18.984C47.3653 19.1227 47.2853 19.224 47.2 19.288C47.1253 19.3413 47.0133 19.368 46.864 19.368C46.7147 19.368 46.5973 19.336 46.512 19.272C46.4267 19.208 46.352 19.112 46.288 18.984L42.24 11.464H42.624V20.472C42.624 20.6747 42.5707 20.8347 42.464 20.952C42.368 21.0587 42.224 21.112 42.032 21.112ZM58.2855 21.144C57.5282 21.144 56.8722 20.9787 56.3175 20.648C55.7628 20.3173 55.3308 19.8533 55.0215 19.256C54.7228 18.648 54.5735 17.9333 54.5735 17.112C54.5735 16.4933 54.6588 15.9387 54.8295 15.448C55.0002 14.9467 55.2508 14.52 55.5815 14.168C55.9122 13.816 56.3015 13.5493 56.7495 13.368C57.2082 13.176 57.7202 13.08 58.2855 13.08C59.0428 13.08 59.6988 13.2453 60.2535 13.576C60.8082 13.9067 61.2348 14.376 61.5335 14.984C61.8428 15.5813 61.9975 16.2907 61.9975 17.112C61.9975 17.7307 61.9122 18.2853 61.7415 18.776C61.5708 19.2667 61.3202 19.6933 60.9895 20.056C60.6588 20.408 60.2642 20.68 59.8055 20.872C59.3575 21.0533 58.8508 21.144 58.2855 21.144ZM58.2855 20.104C58.7655 20.104 59.1868 19.9867 59.5495 19.752C59.9122 19.5173 60.1895 19.176 60.3815 18.728C60.5842 18.28 60.6855 17.7413 60.6855 17.112C60.6855 16.1413 60.4668 15.4 60.0295 14.888C59.6028 14.376 59.0215 14.12 58.2855 14.12C57.7948 14.12 57.3682 14.2373 57.0055 14.472C56.6535 14.696 56.3762 15.032 56.1735 15.48C55.9815 15.9173 55.8855 16.4613 55.8855 17.112C55.8855 18.072 56.1042 18.8133 56.5415 19.336C56.9788 19.848 57.5602 20.104 58.2855 20.104ZM66.7181 21.144C66.2381 21.144 65.7528 21.0853 65.2621 20.968C64.7821 20.8507 64.3341 20.648 63.9181 20.36C63.8115 20.2853 63.7368 20.2 63.6941 20.104C63.6515 19.9973 63.6355 19.896 63.6461 19.8C63.6675 19.6933 63.7101 19.6027 63.7741 19.528C63.8488 19.4533 63.9341 19.4107 64.0301 19.4C64.1368 19.3787 64.2541 19.4 64.3821 19.464C64.7981 19.72 65.1981 19.9013 65.5821 20.008C65.9768 20.104 66.3661 20.152 66.7501 20.152C67.3581 20.152 67.8168 20.04 68.1261 19.816C68.4355 19.592 68.5901 19.288 68.5901 18.904C68.5901 18.6053 68.4888 18.3707 68.2861 18.2C68.0835 18.0187 67.7635 17.88 67.3261 17.784L65.8701 17.464C65.1981 17.3253 64.6968 17.0853 64.3661 16.744C64.0461 16.4027 63.8861 15.96 63.8861 15.416C63.8861 14.936 64.0088 14.5253 64.2541 14.184C64.5101 13.832 64.8675 13.56 65.3261 13.368C65.7848 13.176 66.3181 13.08 66.9261 13.08C67.3955 13.08 67.8381 13.144 68.2541 13.272C68.6808 13.3893 69.0648 13.5813 69.4061 13.848C69.5128 13.9227 69.5821 14.0133 69.6141 14.12C69.6568 14.216 69.6621 14.3173 69.6301 14.424C69.6088 14.52 69.5608 14.6053 69.4861 14.68C69.4115 14.744 69.3208 14.7813 69.2141 14.792C69.1075 14.8027 68.9955 14.7707 68.8781 14.696C68.5581 14.4827 68.2328 14.328 67.9021 14.232C67.5715 14.1253 67.2461 14.072 66.9261 14.072C66.3288 14.072 65.8755 14.1893 65.5661 14.424C65.2568 14.6587 65.1021 14.968 65.1021 15.352C65.1021 15.6507 65.1981 15.896 65.3901 16.088C65.5821 16.28 65.8808 16.4187 66.2861 16.504L67.7421 16.808C68.4355 16.9573 68.9528 17.1973 69.2941 17.528C69.6461 17.848 69.8221 18.2853 69.8221 18.84C69.8221 19.544 69.5395 20.104 68.9741 20.52C68.4088 20.936 67.6568 21.144 66.7181 21.144ZM74.9891 21.144C74.3811 21.144 73.8691 21.0373 73.4531 20.824C73.0478 20.6 72.7438 20.28 72.5411 19.864C72.3385 19.4373 72.2371 18.92 72.2371 18.312V14.232H71.1651C70.9838 14.232 70.8451 14.1893 70.7491 14.104C70.6531 14.008 70.6051 13.88 70.6051 13.72C70.6051 13.56 70.6531 13.4373 70.7491 13.352C70.8451 13.2667 70.9838 13.224 71.1651 13.224H72.2371V11.384C72.2371 11.1707 72.2958 11.0107 72.4131 10.904C72.5305 10.7867 72.6905 10.728 72.8931 10.728C73.0958 10.728 73.2505 10.7867 73.3571 10.904C73.4745 11.0107 73.5331 11.1707 73.5331 11.384V13.224H75.5491C75.7305 13.224 75.8691 13.2667 75.9651 13.352C76.0611 13.4373 76.1091 13.56 76.1091 13.72C76.1091 13.88 76.0611 14.008 75.9651 14.104C75.8691 14.1893 75.7305 14.232 75.5491 14.232H73.5331V18.184C73.5331 18.792 73.6611 19.256 73.9171 19.576C74.1731 19.8853 74.5891 20.04 75.1651 20.04C75.3678 20.04 75.5385 20.0187 75.6771 19.976C75.8265 19.9333 75.9491 19.912 76.0451 19.912C76.1411 19.9013 76.2211 19.9333 76.2851 20.008C76.3491 20.0827 76.3811 20.2107 76.3811 20.392C76.3811 20.52 76.3545 20.6373 76.3011 20.744C76.2585 20.8507 76.1785 20.9253 76.0611 20.968C75.9331 21.0107 75.7625 21.048 75.5491 21.08C75.3465 21.1227 75.1598 21.144 74.9891 21.144ZM80.0746 21.144C79.3066 21.144 78.72 20.9093 78.3146 20.44C77.9093 19.9707 77.7066 19.2987 77.7066 18.424V10.264C77.7066 10.0507 77.76 9.89067 77.8666 9.784C77.9733 9.66667 78.1333 9.608 78.3466 9.608C78.5493 9.608 78.7093 9.66667 78.8266 9.784C78.944 9.89067 79.0026 10.0507 79.0026 10.264V18.328C79.0026 18.904 79.1146 19.336 79.3386 19.624C79.5733 19.9013 79.9146 20.04 80.3626 20.04C80.4586 20.04 80.544 20.0347 80.6186 20.024C80.6933 20.0133 80.768 20.008 80.8426 20.008C80.96 19.9973 81.04 20.024 81.0826 20.088C81.136 20.152 81.1626 20.28 81.1626 20.472C81.1626 20.664 81.12 20.808 81.0346 20.904C80.9493 21 80.8106 21.064 80.6186 21.096C80.5333 21.1067 80.4426 21.1173 80.3466 21.128C80.2506 21.1387 80.16 21.144 80.0746 21.144ZM84.1471 23.992C83.9871 23.992 83.8591 23.9493 83.7631 23.864C83.6671 23.7787 83.6085 23.6613 83.5871 23.512C83.5765 23.3733 83.6031 23.2293 83.6671 23.08L84.7711 20.6V21.16L81.6991 14.024C81.6351 13.864 81.6138 13.7147 81.6351 13.576C81.6565 13.4373 81.7205 13.3253 81.8271 13.24C81.9338 13.1547 82.0831 13.112 82.2751 13.112C82.4458 13.112 82.5791 13.1493 82.6751 13.224C82.7711 13.2987 82.8565 13.432 82.9311 13.624L85.5551 20.056H85.1231L87.7791 13.624C87.8645 13.432 87.9551 13.2987 88.0511 13.224C88.1471 13.1493 88.2858 13.112 88.4671 13.112C88.6378 13.112 88.7658 13.1547 88.8511 13.24C88.9471 13.3253 89.0005 13.4373 89.0111 13.576C89.0325 13.704 89.0111 13.848 88.9471 14.008L84.8511 23.48C84.7658 23.672 84.6698 23.8053 84.5631 23.88C84.4671 23.9547 84.3285 23.992 84.1471 23.992ZM98.8869 21.144C98.3855 21.144 97.8949 21.1013 97.4149 21.016C96.9349 20.9307 96.4869 20.808 96.0709 20.648C95.6655 20.488 95.2975 20.2853 94.9669 20.04C94.8389 19.944 94.7482 19.8373 94.6949 19.72C94.6522 19.592 94.6415 19.4693 94.6629 19.352C94.6949 19.224 94.7482 19.1173 94.8229 19.032C94.9082 18.9467 95.0095 18.8987 95.1269 18.888C95.2442 18.8773 95.3722 18.9147 95.5109 19C95.9909 19.3413 96.5029 19.592 97.0469 19.752C97.5909 19.9013 98.2042 19.976 98.8869 19.976C99.8469 19.976 100.556 19.8 101.015 19.448C101.484 19.0853 101.719 18.6107 101.719 18.024C101.719 17.544 101.548 17.1707 101.207 16.904C100.876 16.6267 100.316 16.408 99.5269 16.248L97.8629 15.912C96.8602 15.6987 96.1082 15.352 95.6069 14.872C95.1162 14.3813 94.8709 13.7307 94.8709 12.92C94.8709 12.4187 94.9722 11.9653 95.1749 11.56C95.3775 11.144 95.6602 10.792 96.0229 10.504C96.3855 10.2053 96.8175 9.976 97.3189 9.816C97.8202 9.656 98.3749 9.576 98.9829 9.576C99.6549 9.576 100.279 9.672 100.855 9.864C101.442 10.0453 101.97 10.3227 102.439 10.696C102.556 10.792 102.636 10.904 102.679 11.032C102.722 11.1493 102.727 11.2667 102.695 11.384C102.663 11.4907 102.604 11.5813 102.519 11.656C102.444 11.7307 102.343 11.7733 102.215 11.784C102.098 11.7947 101.964 11.752 101.815 11.656C101.388 11.336 100.946 11.1067 100.487 10.968C100.028 10.8187 99.5215 10.744 98.9669 10.744C98.4015 10.744 97.9109 10.8293 97.4949 11C97.0895 11.1707 96.7695 11.4213 96.5349 11.752C96.3109 12.072 96.1989 12.4453 96.1989 12.872C96.1989 13.384 96.3535 13.7893 96.6629 14.088C96.9829 14.3867 97.5002 14.6053 98.2149 14.744L99.8789 15.096C100.956 15.32 101.751 15.6613 102.263 16.12C102.786 16.568 103.047 17.1813 103.047 17.96C103.047 18.4293 102.951 18.8613 102.759 19.256C102.567 19.6507 102.29 19.992 101.927 20.28C101.564 20.5573 101.127 20.7707 100.615 20.92C100.103 21.0693 99.5269 21.144 98.8869 21.144ZM107.809 21.144C107.179 21.144 106.657 21.032 106.241 20.808C105.835 20.5733 105.526 20.2267 105.313 19.768C105.11 19.3093 105.009 18.7387 105.009 18.056V13.768C105.009 13.544 105.062 13.3787 105.169 13.272C105.286 13.1653 105.446 13.112 105.649 13.112C105.862 13.112 106.022 13.1653 106.129 13.272C106.246 13.3787 106.305 13.544 106.305 13.768V18.04C106.305 18.7227 106.443 19.2347 106.721 19.576C107.009 19.9067 107.457 20.072 108.065 20.072C108.726 20.072 109.265 19.848 109.681 19.4C110.097 18.952 110.305 18.3653 110.305 17.64V13.768C110.305 13.544 110.358 13.3787 110.465 13.272C110.582 13.1653 110.747 13.112 110.961 13.112C111.163 13.112 111.318 13.1653 111.425 13.272C111.542 13.3787 111.601 13.544 111.601 13.768V20.44C111.601 20.888 111.393 21.112 110.977 21.112C110.774 21.112 110.614 21.0533 110.497 20.936C110.39 20.8187 110.337 20.6533 110.337 20.44V18.984L110.545 19.208C110.331 19.8373 109.979 20.3173 109.489 20.648C109.009 20.9787 108.449 21.144 107.809 21.144ZM114.815 21.112C114.602 21.112 114.442 21.0533 114.335 20.936C114.229 20.8187 114.175 20.6533 114.175 20.44V13.768C114.175 13.5547 114.229 13.3947 114.335 13.288C114.442 13.1707 114.597 13.112 114.799 13.112C115.002 13.112 115.157 13.1707 115.263 13.288C115.381 13.3947 115.439 13.5547 115.439 13.768V15.144L115.263 14.952C115.487 14.3333 115.85 13.8693 116.351 13.56C116.863 13.24 117.45 13.08 118.111 13.08C118.73 13.08 119.242 13.192 119.647 13.416C120.063 13.64 120.373 13.9813 120.575 14.44C120.778 14.888 120.879 15.4587 120.879 16.152V20.44C120.879 20.6533 120.821 20.8187 120.703 20.936C120.597 21.0533 120.442 21.112 120.239 21.112C120.026 21.112 119.861 21.0533 119.743 20.936C119.637 20.8187 119.583 20.6533 119.583 20.44V16.232C119.583 15.5067 119.439 14.9787 119.151 14.648C118.874 14.3067 118.426 14.136 117.807 14.136C117.093 14.136 116.522 14.36 116.095 14.808C115.679 15.2453 115.471 15.832 115.471 16.568V20.44C115.471 20.888 115.253 21.112 114.815 21.112ZM124.059 21.112C123.846 21.112 123.686 21.0533 123.579 20.936C123.472 20.8187 123.419 20.6533 123.419 20.44V13.768C123.419 13.5547 123.472 13.3947 123.579 13.288C123.686 13.1707 123.84 13.112 124.043 13.112C124.246 13.112 124.4 13.1707 124.507 13.288C124.624 13.3947 124.683 13.5547 124.683 13.768V15.144L124.507 14.952C124.731 14.3333 125.094 13.8693 125.595 13.56C126.107 13.24 126.694 13.08 127.355 13.08C127.974 13.08 128.486 13.192 128.891 13.416C129.307 13.64 129.616 13.9813 129.819 14.44C130.022 14.888 130.123 15.4587 130.123 16.152V20.44C130.123 20.6533 130.064 20.8187 129.947 20.936C129.84 21.0533 129.686 21.112 129.483 21.112C129.27 21.112 129.104 21.0533 128.987 20.936C128.88 20.8187 128.827 20.6533 128.827 20.44V16.232C128.827 15.5067 128.683 14.9787 128.395 14.648C128.118 14.3067 127.67 14.136 127.051 14.136C126.336 14.136 125.766 14.36 125.339 14.808C124.923 15.2453 124.715 15.832 124.715 16.568V20.44C124.715 20.888 124.496 21.112 124.059 21.112ZM134.313 23.992C134.153 23.992 134.025 23.9493 133.929 23.864C133.833 23.7787 133.774 23.6613 133.753 23.512C133.742 23.3733 133.769 23.2293 133.833 23.08L134.937 20.6V21.16L131.865 14.024C131.801 13.864 131.779 13.7147 131.801 13.576C131.822 13.4373 131.886 13.3253 131.993 13.24C132.099 13.1547 132.249 13.112 132.441 13.112C132.611 13.112 132.745 13.1493 132.841 13.224C132.937 13.2987 133.022 13.432 133.097 13.624L135.721 20.056H135.289L137.945 13.624C138.03 13.432 138.121 13.2987 138.217 13.224C138.313 13.1493 138.451 13.112 138.633 13.112C138.803 13.112 138.931 13.1547 139.017 13.24C139.113 13.3253 139.166 13.4373 139.177 13.576C139.198 13.704 139.177 13.848 139.113 14.008L135.017 23.48C134.931 23.672 134.835 23.8053 134.729 23.88C134.633 23.9547 134.494 23.992 134.313 23.992Z" fill="#212121" fill-opacity="0.6"/>
<defs>
<linearGradient id="paint0_linear_5_147" x1="6.45068" y1="5.51659" x2="30.6801" y2="28.6905" gradientUnits="userSpaceOnUse">
<stop stop-color="#FFFF00" stop-opacity="0.2"/>
<stop offset="0.13" stop-color="#FDEF0B" stop-opacity="0.4"/>
<stop offset="0.27" stop-color="#FDE015" stop-opacity="0.58"/>
<stop offset="0.41" stop-color="#FCD41E" stop-opacity="0.73"/>
<stop offset="0.55" stop-color="#FBCB24" stop-opacity="0.85"/>
<stop offset="0.68" stop-color="#FBC529" stop-opacity="0.93"/>
<stop offset="0.82" stop-color="#FBC12C" stop-opacity="0.98"/>
<stop offset="0.94" stop-color="#FBC02D"/>
</linearGradient>
<radialGradient id="paint1_radial_5_147" cx="0" cy="0" r="1" gradientUnits="userSpaceOnUse" gradientTransform="translate(12.0336 12.5019) rotate(90) scale(5.01697 5.47306)">
<stop stop-color="white"/>
<stop offset="1" stop-color="#FFF176" stop-opacity="0"/>
</radialGradient>
<radialGradient id="paint2_radial_5_147" cx="0" cy="0" r="1" gradientUnits="userSpaceOnUse" gradientTransform="translate(12.9504 29.8961) rotate(-41.76) scale(12.4294)">
<stop stop-color="white" stop-opacity="0"/>
<stop offset="0.95" stop-color="#757575" stop-opacity="0.32"/>
</radialGradient>
<clipPath id="clip0_5_147">
<rect width="32" height="32" fill="white"/>
</clipPath>
</defs>
</svg>
