<svg width="32" height="26" viewBox="0 0 32 26" fill="none" xmlns="http://www.w3.org/2000/svg">
<mask id="mask0_23_943" style="mask-type:luminance" maskUnits="userSpaceOnUse" x="0" y="0" width="19" height="20">
<path d="M18.7093 0.529999H0V19.2393H18.7093V0.529999Z" fill="white"/>
</mask>
<g mask="url(#mask0_23_943)">
<path d="M8.39515 0.98829C8.88908 0.377764 9.82187 0.377764 10.3158 0.98829L11.1871 2.06683C11.4947 2.4474 11.9968 2.60934 12.468 2.48303L13.8073 2.12351C14.5668 1.91946 15.3198 2.46683 15.3603 3.25226L15.4316 4.63687C15.4575 5.12432 15.7668 5.55185 16.2235 5.72675L17.519 6.2223C18.2526 6.50408 18.5409 7.38991 18.1117 8.04902L17.3555 9.21177C17.0899 9.62149 17.0899 10.1494 17.3555 10.5591L18.1117 11.7219C18.5409 12.381 18.2526 13.2668 17.519 13.5486L16.2235 14.0442C15.7668 14.2191 15.4575 14.645 15.4316 15.134L15.3603 16.5187C15.3198 17.3041 14.5652 17.8514 13.8073 17.6474L12.468 17.2879C11.9968 17.1616 11.4931 17.3235 11.1871 17.7041L10.3158 18.7826C9.82187 19.3931 8.88908 19.3931 8.39515 18.7826L7.52389 17.7041C7.2162 17.3235 6.71418 17.1616 6.24292 17.2879L4.90365 17.6474C4.14414 17.8514 3.3911 17.3041 3.35061 16.5187L3.27936 15.134C3.25345 14.6466 2.94414 14.2191 2.48746 14.0442L1.19191 13.5486C0.458307 13.2668 0.170048 12.381 0.599198 11.7219L1.35547 10.5591C1.62106 10.1494 1.62106 9.62149 1.35547 9.21177L0.599198 8.04902C0.170048 7.38991 0.458307 6.50408 1.19191 6.2223L2.48746 5.72675C2.94414 5.55185 3.25345 5.12594 3.27936 4.63687L3.35061 3.25226C3.3911 2.46683 4.14576 1.91946 4.90365 2.12351L6.24292 2.48303C6.71418 2.60934 7.21782 2.4474 7.52389 2.06683L8.39515 0.98829Z" fill="#FBC02D"/>
<path d="M9.33764 16.5688C13.0316 16.5688 16.0259 13.5745 16.0259 9.88058C16.0259 6.18665 13.0316 3.19232 9.33764 3.19232C5.64372 3.19232 2.64938 6.18665 2.64938 9.88058C2.64938 13.5745 5.64372 16.5688 9.33764 16.5688Z" fill="#FFEE58"/>
<path opacity="0.4" d="M9.33764 16.5688C13.0316 16.5688 16.0259 13.5745 16.0259 9.88058C16.0259 6.18665 13.0316 3.19232 9.33764 3.19232C5.64372 3.19232 2.64938 6.18665 2.64938 9.88058C2.64938 13.5745 5.64372 16.5688 9.33764 16.5688Z" fill="url(#paint0_linear_23_943)"/>
<path d="M10.319 8.05223C10.319 9.96964 8.76438 11.5243 6.84697 11.5243C4.92956 11.5243 3.37491 9.96964 3.37491 8.05223C3.37491 6.13483 4.92956 4.58017 6.84697 4.58017C8.76438 4.58017 10.319 6.13483 10.319 8.05223Z" fill="url(#paint1_radial_23_943)"/>
</g>
<path d="M7.72632 25.4676C11.9935 25.4676 15.4526 22.0085 15.4526 17.7413C15.4526 13.4741 11.9935 10.015 7.72632 10.015C3.45911 10.015 0 13.4741 0 17.7413C0 22.0085 3.45911 25.4676 7.72632 25.4676Z" fill="white"/>
<path d="M18.5976 10.7081H7.72632V25.4693H18.596V10.7081H18.5976Z" fill="white"/>
<path d="M19.532 25.4677C26.4178 25.4677 32 19.8855 32 12.9996C32 6.1138 26.4178 0.529999 19.532 0.529999C12.6462 0.529999 7.06396 6.11218 7.06396 12.998C7.06396 19.8838 12.6462 25.466 19.532 25.466V25.4677Z" fill="white"/>
<path d="M7.72632 25.4676C11.9935 25.4676 15.4526 22.0085 15.4526 17.7413C15.4526 13.4741 11.9935 10.015 7.72632 10.015C3.45911 10.015 0 13.4741 0 17.7413C0 22.0085 3.45911 25.4676 7.72632 25.4676Z" fill="url(#paint2_radial_23_943)"/>
<defs>
<linearGradient id="paint0_linear_23_943" x1="3.53197" y1="4.07491" x2="17.6356" y2="18.1786" gradientUnits="userSpaceOnUse">
<stop stop-color="#FFFF00" stop-opacity="0.2"/>
<stop offset="0.13" stop-color="#FDEF0B" stop-opacity="0.4"/>
<stop offset="0.27" stop-color="#FDE015" stop-opacity="0.58"/>
<stop offset="0.41" stop-color="#FCD41E" stop-opacity="0.73"/>
<stop offset="0.55" stop-color="#FBCB24" stop-opacity="0.85"/>
<stop offset="0.68" stop-color="#FBC529" stop-opacity="0.93"/>
<stop offset="0.82" stop-color="#FBC12C" stop-opacity="0.98"/>
<stop offset="0.94" stop-color="#FBC02D"/>
</linearGradient>
<radialGradient id="paint1_radial_23_943" cx="0" cy="0" r="1" gradientUnits="userSpaceOnUse" gradientTransform="translate(6.82106 8.05223) rotate(90) scale(3.20648)">
<stop stop-color="white"/>
<stop offset="1" stop-color="#FFF176" stop-opacity="0"/>
</radialGradient>
<radialGradient id="paint2_radial_23_943" cx="0" cy="0" r="1" gradientUnits="userSpaceOnUse" gradientTransform="translate(3.05732 22.4168) rotate(-41.76) scale(18.7852)">
<stop stop-color="white" stop-opacity="0"/>
<stop offset="0.95" stop-color="#757575" stop-opacity="0.32"/>
</radialGradient>
</defs>
</svg>
