<svg width="28" height="28" viewBox="0 0 28 28" fill="none" xmlns="http://www.w3.org/2000/svg">
<path d="M0 4.8172C0 2.15674 2.15674 0 4.8172 0H23.1828C25.8433 0 28 2.15674 28 4.8172V23.1828C28 25.8433 25.8433 28 23.1828 28H4.8172C2.15674 28 0 25.8433 0 23.1828V4.8172Z" fill="url(#paint0_linear_34_1661)"/>
<path d="M22.3996 14C22.3996 18.6392 18.6388 22.4 13.9996 22.4C9.36042 22.4 5.59961 18.6392 5.59961 14C5.59961 9.36081 9.36042 5.60001 13.9996 5.60001C18.6388 5.60001 22.3996 9.36081 22.3996 14Z" fill="url(#paint1_linear_34_1661)"/>
<defs>
<linearGradient id="paint0_linear_34_1661" x1="14" y1="0" x2="14" y2="28" gradientUnits="userSpaceOnUse">
<stop stop-color="#9FA8DA"/>
<stop offset="1" stop-color="#5C6BC0"/>
</linearGradient>
<linearGradient id="paint1_linear_34_1661" x1="7.76675" y1="8.634" x2="19.686" y2="21.8535" gradientUnits="userSpaceOnUse">
<stop stop-color="#FFEE58"/>
<stop offset="1" stop-color="#FBC02D"/>
</linearGradient>
</defs>
</svg>
