<svg width="32" height="33" viewBox="0 0 32 33" fill="none" xmlns="http://www.w3.org/2000/svg">
<g clip-path="url(#clip0_28_2470)">
<path d="M15.9999 13.8333C17.4043 13.8331 18.784 14.2026 20.0003 14.9047C21.2167 15.6068 22.2267 16.6167 22.929 17.8329C23.6313 19.049 24.001 20.4287 24.0011 21.8331C24.0011 23.2374 23.6315 24.6171 22.9293 25.8333H26.6666C27.0202 25.8333 27.3594 25.9738 27.6094 26.2239C27.8595 26.4739 27.9999 26.8131 27.9999 27.1667C27.9999 27.5203 27.8595 27.8594 27.6094 28.1095C27.3594 28.3595 27.0202 28.5 26.6666 28.5H5.33328C4.97966 28.5 4.64052 28.3595 4.39047 28.1095C4.14042 27.8594 3.99995 27.5203 3.99995 27.1667C3.99995 26.8131 4.14042 26.4739 4.39047 26.2239C4.64052 25.9738 4.97966 25.8333 5.33328 25.8333H9.07061C8.36842 24.6171 7.99877 23.2374 7.99882 21.8331C7.99887 20.4287 8.36862 19.049 9.0709 17.8329C9.77318 16.6167 10.7832 15.6068 11.9996 14.9047C13.2159 14.2026 14.5956 13.8331 15.9999 13.8333ZM15.9999 16.5C14.9418 16.4999 13.9075 16.8146 13.0287 17.4041C12.1499 17.9935 11.4663 18.8311 11.0649 19.8102C10.6634 20.7893 10.5624 21.8656 10.7745 22.9024C10.9866 23.9391 11.5023 24.8892 12.2559 25.632L12.4733 25.832H19.5266C20.3385 25.1154 20.9131 24.1686 21.1738 23.1176C21.4346 22.0665 21.3692 20.961 20.9864 19.948C20.6036 18.935 19.9214 18.0625 19.0307 17.4466C18.14 16.8307 17.0829 16.5005 15.9999 16.5ZM27.9999 20.5C28.3398 20.5004 28.6667 20.6305 28.9138 20.8638C29.1609 21.0971 29.3096 21.4159 29.3295 21.7552C29.3494 22.0945 29.239 22.4285 29.0209 22.6891C28.8028 22.9497 28.4934 23.1172 28.1559 23.1573L27.9999 23.1667H26.6666C26.3268 23.1663 25.9999 23.0362 25.7528 22.8029C25.5057 22.5696 25.357 22.2507 25.3371 21.9115C25.3171 21.5722 25.4275 21.2382 25.6456 20.9776C25.8638 20.717 26.1732 20.5495 26.5106 20.5093L26.6666 20.5H27.9999ZM5.33328 20.5C5.67312 20.5004 5.99999 20.6305 6.24711 20.8638C6.49422 21.0971 6.64293 21.4159 6.66284 21.7552C6.68276 22.0945 6.57238 22.4285 6.35426 22.6891C6.13614 22.9497 5.82674 23.1172 5.48928 23.1573L5.33328 23.1667H3.99995C3.66011 23.1663 3.33324 23.0362 3.08612 22.8029C2.83901 22.5696 2.6903 22.2507 2.67038 21.9115C2.65047 21.5722 2.76085 21.2382 2.97897 20.9776C3.19709 20.717 3.50649 20.5495 3.84395 20.5093L3.99995 20.5H5.33328ZM8.45728 12.4053L9.39995 13.348C9.64283 13.5995 9.77722 13.9363 9.77418 14.2859C9.77114 14.6355 9.63092 14.9699 9.38371 15.2171C9.13649 15.4643 8.80208 15.6045 8.45248 15.6076C8.10289 15.6106 7.76608 15.4762 7.51461 15.2333L6.57195 14.2907C6.32907 14.0392 6.19468 13.7024 6.19771 13.3528C6.20075 13.0032 6.34098 12.6688 6.58819 12.4216C6.8354 12.1744 7.16982 12.0341 7.51941 12.0311C7.86901 12.0281 8.20581 12.1625 8.45728 12.4053ZM23.5426 12.4053C23.7826 12.1662 24.1045 12.0274 24.4431 12.017C24.7817 12.0067 25.1116 12.1256 25.3657 12.3497C25.6197 12.5737 25.779 12.8861 25.8111 13.2233C25.8433 13.5605 25.7458 13.8974 25.5386 14.1653L25.4279 14.2907L24.4853 15.2333C24.2453 15.4725 23.9234 15.6113 23.5848 15.6216C23.2462 15.632 22.9163 15.5131 22.6622 15.289C22.4082 15.065 22.2489 14.7526 22.2167 14.4154C22.1846 14.0781 22.2821 13.7413 22.4893 13.4733L22.5999 13.348L23.5426 12.4053ZM15.9999 3.00534C16.3267 3.00542 16.6421 3.12551 16.8862 3.34279C17.1303 3.56008 17.286 3.85943 17.3239 4.18401L17.3333 4.34001V7.94801L17.8853 7.39467C18.1247 7.153 18.4474 7.01196 18.7873 7.00043C19.1273 6.9889 19.4588 7.10774 19.7141 7.33263C19.9693 7.55752 20.1289 7.87145 20.1602 8.21017C20.1916 8.54889 20.0922 8.88678 19.8826 9.15467L19.7706 9.28134L16.9439 12.1093C16.7144 12.3389 16.4089 12.4768 16.0849 12.4972C15.7608 12.5176 15.4405 12.419 15.1839 12.22L15.0573 12.1093L12.2293 9.28134C11.9876 9.04195 11.8466 8.71925 11.835 8.37928C11.8235 8.03931 11.9423 7.70779 12.1672 7.45257C12.3921 7.19735 12.7061 7.03774 13.0448 7.0064C13.3835 6.97507 13.7214 7.07438 13.9893 7.28401L14.1146 7.39467L14.6666 7.94801V4.34001C14.6666 3.98639 14.8071 3.64725 15.0571 3.3972C15.3072 3.14715 15.6463 3.00667 15.9999 3.00667V3.00534Z" fill="#212121" fill-opacity="0.6"/>
</g>
<defs>
<clipPath id="clip0_28_2470">
<rect width="32" height="32" fill="white" transform="translate(0 0.5)"/>
</clipPath>
</defs>
</svg>
